<?xml version="1.0" encoding="utf-8"?>
<!-- Generator: Adobe Illustrator 19.2.1, SVG Export Plug-In . SVG Version: 6.00 Build 0)  -->
<svg version="1.1" id="Layer_1" xmlns="http://www.w3.org/2000/svg" xmlns:xlink="http://www.w3.org/1999/xlink" x="0px" y="0px"
	 viewBox="0 0 250.2 51.2" style="enable-background:new 0 0 250.2 51.2;" xml:space="preserve">
<style type="text/css">
	.st0{clip-path:url(#SVGID_2_);}
	.st1{clip-path:url(#SVGID_2_);fill:#F5F4F4;}
</style>
<g>
	<path d="M22.8,27.8c0,3-2.1,6.1-5.9,6.1c-3.7,0-5.9-3.1-5.9-6.1v-27H0v27.7c0,4.7,1.8,9,5.1,12c3.1,2.9,7.3,4.5,11.8,4.5
		c4.4,0,8.6-1.6,11.7-4.5c3.3-3,5.1-7.3,5.1-12V0.8H22.8V27.8z"/>
	<path d="M78.5,39.4c0,3.1-2.5,5.6-5.6,5.6c-3.1,0-5.6-2.5-5.6-5.6c0-3.1,2.5-5.6,5.6-5.6C76,33.8,78.5,36.3,78.5,39.4"/>
	<path d="M55.6,25.1l-5.1-1.4c-1.2-0.3-2.4-0.6-2.4-1.7c0-0.9,0.8-1.8,2.7-1.8c0.8,0,2.7,0.6,2.7,2.4l0,0.1h9.8l0-0.1
		c0-3.6-1.5-6.6-4.3-8.5c-2.3-1.5-5.4-2.4-8.8-2.4c-6.5,0-12.4,4.4-12.4,9.4c-0.1,2.6-0.2,8,9.5,10.7l3.9,1c2.2,0.6,2.3,1.2,2.3,1.8
		c0,1.1-1.5,1.9-2.8,1.9c-1.9,0-3.6-1.2-3.7-2.7l0-0.1h-9.7l0,0.1C37.5,41.1,44.3,45,50.6,45c3.5,0,6.8-0.9,9.2-2.5
		c2.9-1.9,4.5-4.6,4.5-7.8C64.3,33,63.7,27.3,55.6,25.1"/>
	<path d="M100.6,13.2V0.9h4v12.3c0,4.3-3.4,7.1-7.3,7.1c-3.9,0-7.3-2.8-7.3-7.1V0.9h4.1v12.3c0,2,1.6,3.3,3.2,3.3
		C99,16.5,100.6,15.2,100.6,13.2"/>
	<path d="M110.9,20h-3.8v-13h3.8v1.9c0.7-1.3,2.2-2.2,3.7-2.2c2.9,0,4.7,1.8,4.7,5.5V20h-3.8v-6.9c0-1.7-0.9-2.6-2.2-2.6
		c-1.3,0-2.3,0.7-2.3,2.6V20z"/>
	<path d="M125.9,20h-3.8v-13h3.8V20z M124,0c1.3,0,2.3,1,2.3,2.2c0,1.3-1,2.3-2.3,2.3s-2.4-1-2.4-2.3C121.7,1,122.8,0,124,0"/>
	<path d="M137.7,13.5c0-1.7-1.3-2.9-2.9-2.9c-1.6,0-2.9,1.2-2.9,2.9c0,1.8,1.3,3,2.9,3C136.4,16.5,137.7,15.3,137.7,13.5
		 M128.2,13.5c0-4.1,3-6.7,6.6-6.7s6.6,2.6,6.6,6.7c0,4.1-3,6.7-6.6,6.7S128.2,17.6,128.2,13.5"/>
	<path d="M147.5,20h-3.8v-13h3.8v1.9c0.7-1.3,2.2-2.2,3.7-2.2c2.9,0,4.7,1.8,4.7,5.5V20H152v-6.9c0-1.7-0.9-2.6-2.2-2.6
		c-1.3,0-2.3,0.7-2.3,2.6V20z"/>
	<path d="M93.7,39.3c0.1,1.2,1,2.3,2.8,2.3c1.6,0,2.7-0.8,2.8-2c0-0.9-0.4-1.6-2.3-2.2l-2.3-0.6c-4.1-1.3-4.9-3.8-4.9-5.5
		c0-3.4,2.9-5.7,6.5-5.7c3.6,0,6.4,2.2,6.4,5.9h-4c0-1.3-0.8-2.2-2.4-2.2c-1.4,0-2.4,0.8-2.4,1.9c0,0.5,0.2,1.4,2,1.9l2.2,0.7
		c4.6,1.3,5.2,3.9,5.2,5.8c-0.1,3.8-3.4,5.6-6.8,5.6c-4.1,0-6.8-2.5-6.8-5.9H93.7z"/>
	<path d="M114.3,38.3c0-1.7-1.3-2.9-2.9-2.9c-1.6,0-2.9,1.2-2.9,2.9c0,1.8,1.3,3,2.9,3C113,41.3,114.3,40.1,114.3,38.3 M104.9,38.3
		c0-4.1,3-6.7,6.6-6.7s6.6,2.6,6.6,6.7c0,4.1-3,6.7-6.6,6.7S104.9,42.4,104.9,38.3"/>
	<path d="M128.6,31.9h3.8v13h-3.8v-1.8c-0.7,1.3-2.1,2.1-3.3,2.1c-2.9,0-5-1.8-5-5.5v-7.7h3.8v6.9c0,2.1,1.4,2.6,2.3,2.6
		c1.2,0,2.3-0.7,2.3-2.6V31.9z"/>
	<polygon points="143,31.9 143,34.9 140.3,34.9 140.3,44.9 136.6,44.9 136.6,34.9 134.3,34.9 134.3,31.9 136.6,31.9 136.6,26.9 
		140.3,26.9 140.3,31.9 	"/>
	<path d="M148.7,44.9h-3.8v-20h3.8v9.1c0.5-1.6,2.4-2.3,3.6-2.3c3.4,0,5.1,2.3,5.1,6.2v7.1h-3.8v-6.9c0-1.7-1.2-2.6-2.3-2.6
		c-1.2,0-2.5,0.7-2.5,2.6V44.9z"/>
	<path d="M166.6,41.4c1.6,0,3.1-1.1,3.1-3.1c0-1.9-1.5-3.1-3.1-3.1c-1.6,0-3.2,1.2-3.2,3.1S165,41.4,166.6,41.4 M169.6,43.4
		c-0.8,1.2-2.7,1.7-3.7,1.7c-3.2,0-6.5-2.6-6.5-6.7c0-4.2,3.2-6.7,6.5-6.7c0.8,0,2.7,0.3,3.7,1.7v-1.4h3.8v13h-3.8V43.4z"/>
	<path d="M187.8,38v6.9H184v-7c0-1.6-1-2.5-2.1-2.5c-1.1,0-2.2,0.7-2.2,2.6v6.9h-3.8v-13h3.8v1.9c0.6-1.4,2-2.1,3.3-2.1
		c2,0,3.4,0.8,4.1,2.3c1.2-2,2.9-2.3,3.8-2.3c3,0,4.9,2,4.9,5.9v7.4h-3.8v-6.9c0-1.7-1-2.6-2.1-2.6C188.8,35.4,187.8,36.1,187.8,38"
		/>
	<path d="M205,41.5c1.6,0,2.9-1.2,2.9-3.1c0-1.9-1.3-3.1-2.9-3.1c-1.6,0-2.9,1.3-2.9,3.1C202,40.4,203.4,41.5,205,41.5 M201.9,31.9
		v1.6c0.6-1.2,2.2-1.9,3.7-1.9c3.3,0,6.2,2.6,6.2,6.7c0,4.2-2.9,6.8-6.2,6.8c-1.6,0-3.1-0.7-3.7-1.9v7.9h-3.8V31.9H201.9z"/>
	<polygon points="221.6,31.9 221.6,34.9 219,34.9 219,44.9 215.2,44.9 215.2,34.9 212.9,34.9 212.9,31.9 215.2,31.9 215.2,26.9 
		219,26.9 219,31.9 	"/>
	<path d="M232,38.3c0-1.7-1.3-2.9-2.9-2.9c-1.6,0-2.9,1.2-2.9,2.9c0,1.8,1.3,3,2.9,3C230.7,41.3,232,40.1,232,38.3 M222.5,38.3
		c0-4.1,3-6.7,6.6-6.7c3.6,0,6.6,2.6,6.6,6.7c0,4.1-3,6.7-6.6,6.7C225.5,45.1,222.5,42.4,222.5,38.3"/>
	<path d="M241.8,44.9H238v-13h3.8v1.9c0.7-1.3,2.2-2.2,3.7-2.2c2.9,0,4.7,1.8,4.7,5.5v7.7h-3.8v-6.9c0-1.7-0.9-2.6-2.2-2.6
		c-1.3,0-2.3,0.7-2.3,2.6V44.9z"/>
</g>
</svg>
