<?xml version="1.0" encoding="utf-8"?>
<!-- Generator: Adobe Illustrator 16.0.3, SVG Export Plug-In . SVG Version: 6.00 Build 0)  -->
<!DOCTYPE svg PUBLIC "-//W3C//DTD SVG 1.1//EN" "http://www.w3.org/Graphics/SVG/1.1/DTD/svg11.dtd">
<svg version="1.1" id="Layer_1" xmlns="http://www.w3.org/2000/svg" xmlns:xlink="http://www.w3.org/1999/xlink" x="0px" y="0px"
	 width="540px" height="346.5px" viewBox="-15.5 512.5 540 346.5" enable-background="new -15.5 512.5 540 346.5"
	 xml:space="preserve">
<path d="M154.763,717.37c0,19.894-14.31,40.834-39.787,40.834c-24.78,0-39.787-20.94-39.787-40.834V536.232H1.896v186.023
	c0,31.76,12.216,60.379,34.203,80.621c20.941,19.196,48.862,30.016,78.877,30.016c29.666,0,57.587-10.818,78.527-30.016
	c21.988-20.242,33.854-48.861,33.854-80.621V536.232h-72.595L154.763,717.37L154.763,717.37z"/>
<path d="M512.5,795.199c0,20.592-16.754,37.693-37.693,37.693c-20.592,0-37.693-16.752-37.693-37.693
	c0-20.592,16.752-37.693,37.693-37.693C495.746,757.855,512.5,774.607,512.5,795.199"/>
<path d="M366.613,699.221l-33.854-9.423c-8.027-2.094-15.706-4.188-15.706-11.519c0-6.281,5.584-11.865,17.8-11.865
	c5.235,0,18.148,3.839,18.498,16.055v0.698h65.614v-0.698c-0.351-24.431-10.122-43.976-28.619-56.889
	c-15.008-10.471-35.948-16.055-58.983-16.055c-43.975,0-82.715,29.666-83.063,63.172c-0.349,17.451-1.047,53.748,63.869,71.547
	l26.176,6.98c14.31,3.838,15.705,7.678,15.705,12.215c0,7.328-9.771,12.563-18.848,12.563c-12.913,0-24.081-8.376-25.128-18.149
	v-0.697H244.46v0.697c1.047,48.862,46.418,75.039,88.647,75.039c23.384,0,45.372-5.935,61.775-16.403
	c19.545-12.564,30.015-30.714,30.015-52.701C424.898,752.271,420.709,714.229,366.613,699.221"/>
</svg>
