<?xml version="1.0" standalone="no"?>
<!DOCTYPE svg PUBLIC "-//W3C//DTD SVG 20010904//EN"
 "http://www.w3.org/TR/2001/REC-SVG-20010904/DTD/svg10.dtd">
<svg version="1.0" xmlns="http://www.w3.org/2000/svg"
 width="260.000000pt" height="260.000000pt" viewBox="0 0 260.000000 260.000000"
 preserveAspectRatio="xMidYMid meet">
<metadata>
Created by potrace 1.11, written by Peter Selinger 2001-2013
</metadata>
<g transform="translate(0.000000,260.000000) scale(0.100000,-0.100000)"
fill="#000000" stroke="none">
<path d="M1307 2582 c-10 -10 -17 -24 -17 -30 0 -6 34 -62 76 -124 42 -62 94
-148 115 -191 33 -65 37 -78 24 -83 -28 -11 -85 4 -132 35 -54 36 -97 40 -113
12 -5 -11 -7 -27 -4 -35 8 -20 2 -20 -113 1 -75 13 -95 14 -108 3 -24 -20 -18
-46 20 -79 60 -52 146 -72 337 -78 126 -4 165 -9 162 -18 -3 -7 -34 -15 -72
-19 -88 -9 -278 -50 -377 -81 l-80 -25 -21 24 c-27 30 -74 152 -111 286 -30
108 -46 130 -83 110 -24 -13 -26 -75 -6 -187 11 -62 11 -73 -1 -73 -17 0 -59
90 -68 148 -8 49 -33 69 -65 52 -27 -14 -27 -99 -1 -203 16 -60 18 -81 9 -105
-9 -24 -8 -41 9 -88 11 -33 23 -66 26 -74 5 -11 -8 -23 -50 -45 l-58 -30 -3
-180 c-1 -99 2 -216 7 -259 8 -64 7 -82 -5 -93 -8 -8 -14 -28 -14 -44 0 -18
-5 -29 -14 -29 -18 0 -30 -33 -21 -60 5 -14 2 -20 -9 -20 -19 0 -22 -60 -4
-78 9 -9 7 -12 -10 -12 -17 0 -22 -6 -22 -26 0 -14 5 -34 10 -45 8 -15 7 -19
-5 -19 -9 0 -15 -9 -15 -26 0 -31 17 -64 32 -64 6 0 4 8 -5 18 -21 23 -22 62
-3 62 19 0 56 -47 56 -71 0 -12 -7 -18 -17 -17 -46 4 -63 -2 -63 -22 0 -16 -7
-20 -36 -20 -28 0 -44 -8 -70 -34 -33 -33 -33 -35 -33 -118 0 -83 1 -86 34
-118 32 -31 35 -32 108 -29 72 3 77 2 101 -24 24 -26 32 -28 85 -25 56 3 58 4
45 23 -30 42 -12 34 25 -12 21 -26 47 -56 59 -66 20 -18 20 -18 15 1 -2 11 1
23 7 27 9 6 11 -1 8 -24 -4 -28 0 -35 42 -66 26 -19 67 -46 91 -61 24 -14 35
-23 24 -19 -44 14 -130 73 -189 130 -61 59 -62 60 -109 55 -64 -8 -74 -20 -44
-56 21 -24 32 -29 68 -28 43 2 43 1 16 -13 -34 -17 -34 -26 1 -53 21 -18 36
-21 72 -17 43 5 44 4 23 -10 -30 -20 -29 -39 2 -59 18 -11 38 -15 65 -11 36 5
39 3 30 -13 -14 -26 -13 -28 20 -45 45 -23 67 -18 113 24 37 34 45 37 70 28
20 -6 32 -6 39 1 11 11 -4 20 -54 36 -11 3 -15 12 -11 25 3 12 7 21 10 21 3 0
24 -17 48 -38 24 -21 62 -51 85 -67 41 -29 42 -29 75 -11 18 10 60 40 94 68
34 27 64 48 66 46 2 -1 5 -12 7 -22 2 -16 -5 -22 -34 -29 -22 -5 -38 -15 -38
-23 0 -16 19 -18 54 -4 22 8 28 6 41 -14 35 -53 102 -68 150 -32 20 14 20 15
-9 45 -31 32 -26 41 8 16 26 -19 76 -19 104 1 27 19 28 28 1 52 -20 20 -20 20
23 15 34 -4 49 0 71 17 15 12 27 25 27 30 0 5 -12 16 -27 25 l-28 16 28 -6
c53 -11 130 52 90 74 -10 5 -37 10 -60 12 -39 3 -45 -1 -112 -64 -65 -61 -162
-127 -186 -127 -5 0 11 12 36 26 26 14 46 31 46 37 0 7 1 23 2 37 2 23 3 23
10 5 5 -12 4 -26 -3 -34 -14 -18 3 -9 50 26 25 19 30 28 26 54 -3 22 -1 30 7
25 6 -4 11 -15 11 -24 1 -11 18 2 52 38 28 30 46 46 40 35 -9 -19 -6 -20 47
-23 50 -3 60 0 81 23 22 23 30 25 110 25 103 0 127 15 116 72 -17 97 -17 106
-7 112 6 4 11 23 11 42 0 47 -29 74 -80 74 -32 0 -40 4 -40 19 0 13 -10 20
-31 25 -17 3 -35 3 -40 0 -6 -3 -8 11 -7 34 2 21 8 39 13 40 6 0 20 4 33 7 18
6 22 4 22 -16 0 -12 -7 -31 -17 -41 -9 -10 -11 -18 -5 -18 15 0 32 33 32 64 0
17 -6 26 -15 26 -12 0 -13 4 -5 19 5 11 10 31 10 45 0 20 -5 26 -22 26 -17 0
-19 3 -10 12 7 7 12 27 12 45 0 27 -4 33 -20 33 -17 0 -19 3 -11 18 14 26 2
62 -19 62 -13 0 -16 6 -13 24 3 13 0 33 -6 43 -7 15 -5 49 9 129 28 166 42
323 43 510 l2 169 -70 12 c-38 7 -121 15 -182 19 -71 4 -113 11 -113 18 0 6 7
36 15 66 19 70 19 205 0 293 -15 73 -55 170 -82 199 -23 26 -60 23 -79 -7 -15
-22 -14 -31 9 -122 14 -54 24 -99 23 -100 0 0 -30 35 -66 80 -60 75 -179 187
-199 187 -4 0 -15 -8 -24 -18z m352 -148 c62 -190 52 -317 -41 -532 -30 -68
-43 -90 -50 -80 -8 10 -9 9 -5 -4 3 -9 -3 -35 -14 -59 -15 -30 -18 -44 -10
-52 8 -8 14 -8 23 1 18 18 32 15 74 -19 22 -17 50 -35 63 -40 23 -9 23 -11 8
-26 -9 -10 -32 -17 -51 -17 -42 0 -120 34 -107 47 5 5 17 5 29 -2 11 -6 28
-11 36 -11 30 0 16 17 -24 30 -38 13 -42 12 -62 -7 l-21 -22 34 -21 c19 -11
53 -26 76 -32 35 -10 50 -23 80 -66 21 -29 52 -70 69 -90 46 -54 63 -92 85
-195 34 -149 35 -152 41 -142 19 32 63 315 77 504 16 203 15 267 -6 276 -10 4
-80 9 -156 12 -119 5 -137 8 -135 22 3 14 21 16 118 16 63 0 142 -4 174 -8
l59 -9 -6 -171 c-15 -399 -87 -756 -210 -1029 l-30 -68 -43 0 -44 0 -2 43 c-4
84 1 110 28 138 15 16 31 27 37 26 16 -3 54 71 72 138 19 76 19 224 0 300 -9
33 -28 78 -43 100 -32 47 -101 85 -154 85 -27 0 -38 4 -38 15 0 8 -4 15 -10
15 -5 0 -10 -13 -10 -29 0 -37 -32 -77 -73 -90 -30 -10 -208 -41 -234 -41 -22
0 -14 18 23 60 74 82 -2 47 -82 -37 -33 -35 -47 -43 -76 -43 -35 0 -59 17 -71
53 -8 23 0 39 63 121 28 36 50 72 50 80 0 38 27 66 104 109 45 26 105 52 135
59 47 10 55 16 73 52 11 23 36 63 56 91 54 76 75 130 61 156 -11 21 -16 22
-108 16 -174 -11 -373 22 -410 67 -9 11 0 11 50 -1 34 -8 89 -13 123 -11 59 3
61 4 61 31 -1 15 2 27 5 27 3 0 25 -14 49 -30 37 -25 54 -30 106 -30 66 0 85
11 85 47 0 33 -55 139 -140 268 l-72 110 70 -69 c39 -38 68 -74 65 -81 -2 -7
1 -16 8 -21 8 -4 10 -3 5 4 -11 18 0 14 15 -5 12 -14 12 -16 0 -9 -9 6 -12 4
-9 -5 3 -8 11 -14 19 -14 8 0 13 -8 11 -17 -1 -9 3 -20 9 -24 8 -4 9 -3 5 4
-4 7 -5 12 -2 12 3 0 10 -10 17 -21 9 -17 8 -20 -3 -14 -7 4 -2 -2 10 -12 13
-11 25 -31 25 -45 1 -15 4 -24 6 -22 3 2 11 -10 18 -27 39 -94 46 87 8 232
-13 51 -25 105 -25 119 l0 25 20 -25 c10 -14 28 -52 39 -86z m-777 -379 c17
-49 39 -108 51 -130 18 -36 18 -38 2 -25 -17 14 -17 13 -7 -7 7 -12 17 -25 24
-29 7 -5 8 -3 2 7 -4 8 8 -3 29 -23 40 -41 88 -58 158 -58 46 0 130 -23 161
-45 16 -10 14 -13 -18 -28 -32 -16 -40 -16 -87 -3 -29 8 -127 19 -220 24 -176
10 -200 17 -232 65 -8 13 -18 39 -22 58 -6 31 -5 33 10 20 15 -12 18 -10 25
10 6 16 2 34 -15 65 -22 39 -57 173 -48 182 2 3 7 -9 11 -24 9 -36 60 -140 73
-148 5 -4 12 -2 16 4 13 21 26 8 23 -25 -2 -27 5 -42 27 -66 26 -27 85 -66 85
-56 0 2 -11 31 -25 64 -24 59 -66 244 -64 280 1 16 2 16 6 -2 3 -11 19 -60 35
-110z m618 -142 c0 -17 -36 -43 -59 -43 -14 0 -66 -9 -115 -20 -95 -21 -138
-24 -171 -11 -15 6 9 15 90 34 159 38 255 53 255 40z m-673 -211 c9 -5 -11
-20 -56 -41 l-68 -34 -6 -66 c-7 -73 6 -298 23 -404 24 -151 95 -397 110 -381
4 5 13 27 20 49 35 110 68 144 245 250 65 39 140 91 168 117 51 47 54 59 32
111 -12 29 11 19 24 -10 22 -48 25 -136 6 -238 -10 -58 -15 -113 -11 -139 l7
-43 -64 2 c-50 2 -69 7 -86 24 -18 18 -32 21 -113 21 -122 0 -142 -10 -146
-72 -4 -56 11 -88 40 -88 16 0 19 -4 14 -22 -3 -13 -6 -40 -6 -60 l0 -38 -60
0 c-56 0 -60 2 -76 31 -60 116 -122 330 -148 509 -19 133 -29 360 -19 424 8
47 11 50 63 77 56 29 85 35 107 21z m850 -276 c16 -14 46 -61 67 -106 69 -146
71 -282 6 -380 l-30 -45 0 86 c0 47 -7 108 -15 135 -14 48 -53 120 -60 113 -2
-3 6 -31 17 -64 22 -65 35 -210 24 -269 -6 -31 -9 -35 -26 -26 -11 6 -36 6
-63 1 -25 -4 -67 -5 -94 0 -26 4 -58 5 -70 2 -45 -10 -71 89 -58 223 8 86 18
84 34 -8 10 -50 10 -49 7 32 -2 60 -9 99 -24 133 -15 34 -17 47 -8 47 22 0 95
-59 124 -100 32 -47 45 -51 31 -11 -14 40 -74 100 -123 122 -44 19 -43 20 47
39 59 12 111 46 122 80 9 28 57 26 92 -4z m-1048 -346 c0 -24 0 -24 -14 -6
-16 21 -20 58 -8 70 9 9 21 -27 22 -64z m1391 37 c0 -13 -7 -32 -15 -43 -15
-18 -16 -17 -9 16 10 54 24 69 24 27z m-1422 -59 c7 -7 12 -27 12 -46 0 -30
-2 -33 -16 -22 -23 20 -35 47 -28 64 7 19 16 20 32 4z m1455 -8 c6 -23 -29
-73 -45 -64 -6 4 -8 -1 -4 -12 14 -47 26 -132 26 -194 0 -73 6 -82 53 -73 20
4 27 1 27 -11 0 -12 -9 -16 -36 -16 -19 0 -33 4 -30 9 3 5 0 11 -7 14 -10 4
-16 36 -20 109 -3 56 -13 126 -21 153 -20 63 -20 74 -1 49 14 -18 14 -18 15 7
0 24 16 49 31 49 4 0 9 -9 12 -20z m-1430 -89 c-15 -63 -15 -73 -3 -81 8 -5
24 -7 36 -4 33 8 38 -22 7 -46 -36 -28 -47 -25 -39 10 3 18 2 29 -3 25 -5 -3
-12 1 -14 7 -3 7 -6 -30 -6 -82 -1 -73 2 -91 11 -82 19 19 33 14 15 -6 -10
-10 -18 -29 -18 -43 -3 -54 -18 60 -18 138 -1 45 -4 83 -8 86 -5 2 -3 3 3 1
10 -2 35 91 38 143 0 12 5 18 9 14 4 -4 0 -40 -10 -80z m-50 14 c8 -8 16 -12
19 -10 2 2 2 -11 0 -30 -2 -19 -7 -35 -10 -35 -17 0 -42 37 -42 62 0 31 11 36
33 13z m1505 -16 c-2 -19 -12 -38 -25 -47 -22 -14 -23 -13 -23 16 0 30 21 62
41 62 6 0 9 -14 7 -31z m-1418 -18 c15 -28 13 -38 -10 -44 -15 -4 -20 0 -20
13 0 11 5 22 11 26 8 4 7 9 -2 15 -10 6 -10 9 -2 9 7 0 17 -9 23 -19z m1330 8
c0 -5 -6 -7 -12 -3 -10 6 -10 4 0 -7 20 -22 15 -48 -8 -42 -22 6 -26 33 -8 51
15 15 28 15 28 1z m-1426 -68 c10 -11 16 -31 14 -46 l-3 -27 -27 22 c-17 13
-28 31 -28 46 0 29 20 31 44 5z m1536 -5 c0 -15 -11 -33 -27 -46 l-28 -22 -3
27 c-4 28 22 65 45 65 7 0 13 -11 13 -24z m-943 -6 c6 -22 11 -22 245 -21 108
1 118 -1 132 -20 l14 -21 12 22 c9 17 19 21 53 18 l42 -3 0 -105 0 -105 -43
-3 c-24 -2 -49 2 -57 8 -9 7 -15 7 -19 1 -8 -12 -385 -14 -404 -2 -9 5 -12 27
-10 71 2 44 -1 64 -10 67 -9 4 -12 -13 -10 -69 l3 -73 -48 -3 c-70 -5 -80 8
-72 84 6 60 5 63 -17 66 -19 2 -24 10 -26 42 -6 65 -4 66 109 66 92 0 101 -2
106 -20z m825 -7 c16 -14 26 -53 13 -53 -15 0 -55 25 -59 37 -13 33 16 43 46
16z m-1212 -219 c0 -9 -41 -3 -59 8 -15 9 -17 16 -10 30 13 25 2 61 -17 54
-13 -5 -12 -2 1 16 20 29 19 58 -1 58 -14 0 -14 3 -4 15 11 13 19 0 51 -81 22
-53 39 -98 39 -100z m1167 168 c-21 -4 -22 -31 -2 -60 13 -18 14 -21 1 -16
-19 7 -30 -29 -16 -56 6 -11 13 -20 16 -20 2 0 0 9 -6 21 -24 44 14 60 49 20
12 -15 13 -14 8 2 -4 9 -3 17 2 17 13 0 35 -30 27 -37 -3 -3 -6 -1 -6 6 0 8
-9 6 -27 -7 -42 -29 -77 -46 -69 -33 4 6 2 11 -3 11 -6 0 -11 -4 -11 -9 0 -10
-30 -19 -47 -14 -7 3 3 38 29 104 35 86 43 98 56 87 13 -12 13 -13 -1 -16z
m-1247 -24 c0 -17 -41 -58 -58 -58 -11 0 -13 8 -8 30 3 19 2 29 -4 25 -6 -3
-10 -2 -10 3 0 5 18 9 40 10 25 1 40 -3 40 -10z m1320 0 c0 -5 -4 -6 -10 -3
-6 4 -7 -6 -4 -25 8 -37 -9 -40 -43 -8 -35 33 -30 48 17 46 22 -1 40 -5 40
-10z m-1320 -99 c-11 -19 -10 -24 6 -36 10 -7 13 -13 7 -13 -7 0 -15 5 -18 10
-4 7 -12 7 -25 0 -27 -14 -30 -13 -30 13 0 26 18 52 40 60 24 7 33 -9 20 -34z
m-117 5 c-2 -7 0 -15 6 -19 6 -3 11 -11 11 -17 0 -6 -8 -4 -18 5 -10 10 -28
17 -40 17 -13 0 -22 6 -22 15 0 11 9 14 34 12 20 -1 32 -6 29 -13z m-8 -56
c28 -21 36 -22 319 -24 160 -1 299 -2 309 -2 9 0 42 0 72 0 30 0 61 -1 68 -1
6 -1 26 1 42 5 22 4 38 0 54 -14 23 -18 25 -18 42 -1 15 15 41 17 258 15 234
-1 240 -1 243 19 3 18 11 20 98 22 148 4 137 14 136 -129 l-1 -123 -170 -2
c-139 -2 -172 0 -186 13 -15 13 -17 13 -23 -1 -4 -12 -17 -15 -53 -13 l-48 3
-1 50 c-1 28 -2 53 -3 56 -3 14 -70 -63 -73 -84 -3 -21 -9 -22 -95 -25 -66 -2
-93 1 -93 9 0 8 -4 9 -13 0 -10 -7 -97 -10 -283 -8 l-269 2 3 58 c1 38 -1 56
-8 52 -5 -3 -10 -22 -10 -42 0 -53 -23 -73 -85 -73 -28 0 -56 5 -63 12 -9 9
-15 9 -24 0 -15 -15 -92 -16 -120 -1 -14 8 -23 8 -31 0 -6 -6 -36 -11 -66 -11
-42 0 -60 5 -78 22 -21 19 -23 30 -23 109 0 83 1 89 26 108 37 29 112 29 149
-1z m345 -258 c9 0 32 -19 50 -42 21 -25 27 -39 17 -35 -11 4 -22 -2 -32 -16
-15 -21 -15 -21 -15 11 0 19 -8 40 -21 53 -20 20 -21 20 -40 3 -18 -16 -19
-16 -14 -1 3 9 7 25 10 34 4 12 8 14 17 5 7 -7 19 -12 28 -12z m829 0 c28 0
28 -111 0 -136 -17 -16 -22 -16 -29 -4 -25 39 -1 124 30 105 5 -3 10 -1 10 4
0 19 -39 12 -50 -8 -5 -11 -10 -32 -10 -48 0 -27 0 -27 -15 -6 -10 14 -21 20
-32 16 -10 -4 -3 11 18 40 19 26 40 44 47 42 8 -3 22 -5 31 -5z m-1025 -31
c-9 -15 -80 -10 -93 5 -11 12 -6 15 31 18 44 3 72 -7 62 -23z m126 -13 c-6
-20 -15 -36 -19 -36 -14 0 -31 25 -31 46 0 17 7 23 28 26 36 5 36 5 22 -36z
m295 -49 c49 -51 109 -108 132 -125 l41 -32 54 42 c29 23 89 79 133 125 71 74
115 102 115 74 0 -18 -171 -191 -238 -241 l-66 -49 -30 22 c-43 30 -190 172
-238 229 -38 45 -39 48 -17 48 16 0 51 -29 114 -93z m685 34 c-15 -29 -26 -26
-39 10 -6 18 -11 33 -11 35 0 1 12 4 28 6 31 3 40 -18 22 -51z m32 27 c-9 -9
-12 -7 -12 12 0 19 3 21 12 12 9 -9 9 -15 0 -24z m150 22 c6 0 5 -6 -2 -15
-15 -18 -95 -17 -95 0 0 11 53 25 73 19 8 -2 18 -4 24 -4z m-1222 -16 c0 -8
-4 -12 -10 -9 -5 3 -10 10 -10 16 0 5 5 9 10 9 6 0 10 -7 10 -16z m130 -19
c12 -15 9 -89 -4 -102 -3 -4 -15 2 -26 12 -22 20 -27 74 -8 93 16 16 23 15 38
-3z m-143 -49 l27 -24 -38 -10 c-41 -12 -80 -1 -90 25 -9 23 2 33 39 33 21 0
44 -9 62 -24z m493 20 c0 -2 -8 -10 -17 -17 -16 -13 -17 -12 -4 4 13 16 21 21
21 13z m696 -7 c7 -13 -24 -47 -46 -49 -27 -4 -55 0 -70 10 -13 9 -11 13 10
30 27 21 94 27 106 9z m-946 -77 c0 -15 -5 -34 -10 -42 -7 -12 -13 -11 -34 10
-28 25 -33 58 -15 93 12 21 12 21 35 -7 13 -15 24 -39 24 -54z m670 22 c0 -29
-43 -80 -58 -70 -24 15 -9 98 22 118 14 10 36 -20 36 -48z m-295 26 c3 -5 1
-10 -4 -10 -6 0 -11 5 -11 10 0 6 2 10 4 10 3 0 8 -4 11 -10z m-355 -32 c0
-12 3 -18 7 -14 11 11 73 -56 73 -81 0 -17 -4 -21 -17 -16 -32 11 -53 36 -64
75 -5 22 -13 46 -16 55 -4 11 -2 14 5 9 7 -4 12 -17 12 -28z m571 1 c-9 -22
-10 -22 -10 -3 -1 11 2 24 6 27 12 12 14 0 4 -24z m-782 8 c8 -11 4 -13 -20
-9 -22 3 -27 7 -18 13 19 12 25 11 38 -4z m471 -2 c-7 -9 -15 -13 -19 -10 -3
3 1 10 9 15 21 14 24 12 10 -5z m544 6 c3 -5 -5 -11 -19 -13 -20 -4 -23 -3
-14 8 13 16 25 18 33 5z m-900 -36 c7 -27 6 -29 -9 -14 -9 9 -13 23 -9 33 8
21 9 19 18 -19z m-94 2 c14 -7 24 -21 24 -30 -1 -13 4 -15 21 -11 13 3 26 1
29 -4 11 -18 -136 -13 -163 5 l-25 16 23 18 c27 22 56 24 91 6z m738 -44 c-7
-15 -24 -33 -38 -40 -23 -11 -25 -10 -28 8 -2 14 8 34 29 55 27 28 35 32 42
19 5 -9 3 -26 -5 -42z m283 47 c24 -13 25 -36 1 -49 -9 -5 -50 -9 -90 -9 -63
0 -71 2 -61 14 8 10 15 12 23 4 15 -15 30 -12 17 4 -9 11 -4 17 21 29 39 19
62 21 89 7z m-815 -86 c-3 -7 24 -21 65 -34 70 -23 92 -38 28 -20 -45 13 -49
13 -49 -4 0 -25 -50 -56 -90 -56 -53 0 -67 20 -35 50 20 19 36 24 77 23 l52
-1 -34 15 c-23 9 -36 10 -38 3 -2 -5 -12 -10 -22 -10 -10 0 -22 -4 -25 -10 -3
-5 -11 -10 -17 -10 -23 0 24 38 55 44 27 6 30 8 15 17 -10 5 -18 20 -18 32 0
22 1 22 20 -3 11 -14 18 -30 16 -36z m564 31 c0 -8 -8 -18 -17 -24 -16 -8 -14
-10 9 -16 18 -5 35 -1 50 9 30 22 90 20 118 -2 l23 -19 -24 -16 c-32 -23 -71
-21 -103 4 -14 11 -26 16 -26 10 0 -14 -37 -14 -42 -1 -2 7 -15 6 -38 -3 l-34
-15 52 1 c41 1 57 -4 74 -20 30 -31 18 -53 -30 -53 -42 0 -92 30 -92 56 0 17
-4 17 -49 4 -65 -18 -42 -3 29 20 38 12 68 26 65 30 -6 10 18 59 27 54 5 -3 8
-11 8 -19z m-645 -29 c18 -13 17 -15 -15 -35 -40 -24 -62 -26 -93 -10 -32 17
-32 17 -12 39 22 24 91 27 120 6z"/>
<path d="M1450 2416 c0 -2 8 -10 18 -17 15 -13 16 -12 3 4 -13 16 -21 21 -21
13z"/>
<path d="M1622 2110 c7 -10 14 -18 15 -16 6 6 -9 36 -18 36 -5 0 -4 -9 3 -20z"/>
<path d="M1168 2093 c7 -3 16 -2 19 1 4 3 -2 6 -13 5 -11 0 -14 -3 -6 -6z"/>
<path d="M1223 2083 c9 -2 23 -2 30 0 6 3 -1 5 -18 5 -16 0 -22 -2 -12 -5z"/>
<path d="M1583 1875 c-3 -9 -3 -18 -1 -21 3 -3 8 4 11 16 6 23 -1 27 -10 5z"/>
<path d="M1320 1635 c-51 -52 -50 -81 3 -71 59 11 100 83 59 105 -15 8 -27 2
-62 -34z m53 -5 c-8 -30 -21 -34 -15 -5 2 14 8 25 12 25 5 0 6 -9 3 -20z"/>
<path d="M1167 1444 c-4 -4 -7 -17 -7 -29 0 -11 -6 -27 -12 -34 -11 -10 -9
-12 7 -9 23 4 44 53 29 68 -6 6 -13 7 -17 4z"/>
<path d="M790 1836 c0 -16 7 -27 21 -31 30 -10 34 0 12 29 -23 32 -33 33 -33
2z"/>
<path d="M898 1753 c6 -2 18 -2 25 0 6 3 1 5 -13 5 -14 0 -19 -2 -12 -5z"/>
<path d="M983 1753 c9 -2 23 -2 30 0 6 3 -1 5 -18 5 -16 0 -22 -2 -12 -5z"/>
<path d="M960 834 c0 -24 3 -26 31 -22 l32 5 -6 -79 -5 -78 39 0 c31 0 39 4
39 18 0 10 -5 23 -11 29 -5 5 -9 32 -7 59 3 47 4 49 31 46 23 -3 27 0 27 22 0
26 0 26 -85 26 -85 0 -85 0 -85 -26z"/>
<path d="M1155 740 l0 -80 57 0 c52 0 58 2 58 21 0 17 -5 20 -32 17 -19 -2
-33 2 -35 10 -3 7 4 12 16 12 16 0 21 6 21 26 0 21 -4 25 -20 21 -13 -3 -20 0
-20 9 0 12 8 13 35 8 31 -5 35 -4 35 15 0 19 -6 21 -58 21 l-57 0 0 -80z"/>
<path d="M1322 793 c1 -16 -9 -48 -21 -72 -27 -58 -27 -61 9 -61 23 0 30 4 30
20 0 14 7 20 24 20 19 0 23 -4 19 -20 -5 -17 0 -20 26 -20 37 0 39 10 11 72
-10 24 -17 54 -13 66 5 20 2 22 -40 22 -43 0 -46 -1 -45 -27z m48 -49 c0 -8
-5 -12 -10 -9 -6 4 -8 11 -5 16 9 14 15 11 15 -7z"/>
<path d="M1465 740 l0 -80 28 0 c28 0 29 2 23 35 -8 42 -2 45 18 8 l14 -28 13
28 c16 34 32 36 19 1 -15 -39 -13 -44 23 -44 l32 0 0 80 c0 79 0 80 -25 80
-18 0 -31 -9 -44 -31 l-19 -31 -19 31 c-12 19 -28 31 -42 31 -20 0 -21 -5 -21
-80z"/>
<path d="M427 612 c-37 -41 -11 -97 48 -104 19 -2 31 -9 33 -20 4 -23 -33 -25
-42 -3 -7 20 -45 19 -53 0 -11 -30 26 -55 82 -55 59 0 75 12 75 55 0 40 -27
65 -69 65 -25 0 -32 4 -29 17 4 23 38 30 38 9 0 -11 9 -16 30 -16 35 0 41 27
12 53 -26 24 -104 23 -125 -1z"/>
<path d="M1990 611 c0 -11 5 -23 10 -26 6 -3 10 -31 10 -61 0 -30 -4 -54 -10
-54 -5 0 -10 -9 -10 -20 0 -17 7 -20 41 -20 l41 0 -7 40 c-4 22 -4 40 -2 40 3
0 16 -18 28 -40 20 -36 27 -40 61 -40 36 0 37 1 28 26 -13 32 -13 121 -1 128
5 3 7 15 4 26 -4 15 -14 20 -40 20 l-35 0 6 -45 c4 -25 5 -45 3 -45 -3 0 -17
20 -31 45 -24 40 -31 45 -61 45 -28 0 -35 -4 -35 -19z"/>
<path d="M598 573 c-16 -18 -18 -109 -3 -132 9 -15 88 -14 103 1 7 7 12 37 12
68 0 31 -5 61 -12 68 -18 18 -82 15 -100 -5z m67 -68 c0 -30 -4 -41 -17 -43
-15 -3 -18 4 -18 43 0 39 3 46 18 43 13 -2 17 -13 17 -43z"/>
<path d="M729 583 c-5 -28 5 -130 12 -139 16 -19 88 -22 103 -4 7 8 16 45 19
83 l6 67 -34 0 c-33 0 -46 -16 -28 -33 3 -4 6 -26 6 -49 0 -33 -4 -44 -18 -47
-16 -3 -17 3 -13 63 l6 66 -29 0 c-16 0 -30 -3 -30 -7z"/>
<path d="M880 564 c0 -23 3 -25 26 -20 l27 7 -6 -64 -6 -63 29 4 c28 4 28 4
23 64 l-6 59 27 -7 c23 -5 26 -3 26 20 0 26 -1 26 -70 26 -69 0 -70 0 -70 -26z"/>
<path d="M1035 511 l0 -79 28 -5 c28 -4 28 -2 22 30 -5 29 -3 33 15 33 18 0
20 -4 15 -33 -6 -32 -6 -34 22 -30 l28 5 0 79 1 79 -29 0 c-27 0 -29 -2 -23
-30 5 -25 2 -30 -14 -30 -16 0 -19 5 -13 30 5 28 3 30 -24 30 l-29 0 1 -79z"/>
<path d="M1230 566 c0 -13 -9 -45 -20 -71 -27 -64 -26 -72 10 -67 21 3 30 10
30 23 0 12 7 19 20 19 14 0 20 -7 20 -23 0 -20 4 -23 30 -19 36 5 36 6 10 60
-11 22 -20 55 -20 72 0 28 -2 30 -40 30 -36 0 -40 -3 -40 -24z m50 -56 c0 -5
-4 -10 -10 -10 -5 0 -10 5 -10 10 0 6 5 10 10 10 6 0 10 -4 10 -10z"/>
<path d="M1365 511 l0 -79 28 -5 c33 -4 44 12 27 42 -7 13 -7 21 -1 21 6 0 15
-10 22 -21 11 -21 11 -21 31 7 l20 29 -6 -36 c-6 -34 -5 -37 21 -41 l28 -4 0
83 c0 79 -1 83 -22 83 -15 0 -28 -10 -38 -31 -13 -24 -19 -28 -30 -19 -8 7
-17 20 -20 31 -4 13 -16 19 -33 19 l-28 0 1 -79z"/>
<path d="M1565 510 l0 -80 28 0 c26 0 28 2 22 29 -6 28 -4 30 27 33 25 2 35 9
42 30 15 42 -14 68 -73 68 l-47 0 1 -80z m75 24 c0 -17 -22 -14 -28 4 -2 7 3
12 12 12 9 0 16 -7 16 -16z"/>
<path d="M1704 575 c-9 -21 6 -37 28 -31 19 5 20 1 15 -55 -5 -57 -4 -59 19
-59 13 0 27 -1 31 -2 10 -4 12 31 2 38 -5 3 -9 23 -9 45 0 37 1 39 25 33 22
-5 25 -3 25 20 0 25 -2 26 -65 26 -48 0 -67 -4 -71 -15z"/>
<path d="M1870 575 c-19 -22 -25 -112 -10 -130 15 -18 91 -20 108 -3 7 7 12
37 12 68 0 31 -5 61 -12 68 -17 17 -83 15 -98 -3z m60 -70 c0 -33 -4 -45 -15
-45 -11 0 -15 12 -15 45 0 33 4 45 15 45 11 0 15 -12 15 -45z"/>
</g>
</svg>
