<svg xmlns="http://www.w3.org/2000/svg" viewBox="0 0 1345 1130"><defs><style>.\39 980b68b-a6f3-40ae-b570-f4168319ed89{fill:#fff;stroke:#000;stroke-miterlimit:10;stroke-width:4px;}</style></defs><title>manzils</title><g id="4716a741-d135-4119-ad75-5b8135cad891" data-name="Layer 2"><g id="f0d3b093-f42d-4408-baba-eb5ecaa3bf4a" data-name="Text"><path class="9980b68b-a6f3-40ae-b570-f4168319ed89" d="M14.37,990.4h94.07l2.4,40.89h-6.62q-2.32-13.11-6-20.45T89.7,1000.4a18.77,18.77,0,0,0-10.44-3.09,7.18,7.18,0,0,0-4.8,1.34,4.92,4.92,0,0,0-1.52,3.9v83.23a5.37,5.37,0,0,0,1.49,3.93,4.86,4.86,0,0,0,3.6,1.52H90.25V1098H32.7v-6.77H44.34a5.66,5.66,0,0,0,4.15-1.49,5.27,5.27,0,0,0,1.53-4V1003a5.41,5.41,0,0,0-1.57-4.29q-1.56-1.38-4.91-1.38-18.55,0-25.1,34H12Z"/><path class="9980b68b-a6f3-40ae-b570-f4168319ed89" d="M175.25,987.71l40.35,96.54q1.74,4.08,3.78,5.53a9.1,9.1,0,0,0,5.39,1.45h3.93V1098H178.21v-6.77h4.73q5.59,0,7.71-1.23a3.71,3.71,0,0,0,2.11-3.28,10,10,0,0,0-.87-3.71l-8.3-19.93H143.31l-3.83,9.09c-1.6,3.79-2.41,6.6-2.41,8.44a9.57,9.57,0,0,0,3.5,7.68q3.5,2.94,9.55,2.94h3.43V1098H112.66v-6.77H115a10.57,10.57,0,0,0,6.94-2.47,23.27,23.27,0,0,0,6.57-9l38.58-92.1Zm-11.7,27.23-17.24,41h34.31Z"/><path class="9980b68b-a6f3-40ae-b570-f4168319ed89" d="M236.49,990.4h56.16q13.68,0,22.3,3.52t12.84,9.6A23.12,23.12,0,0,1,332,1017q0,11.85-10.62,19.19-8.07,5.6-24.88,7.27,8.43,1.4,13,4.41a26.72,26.72,0,0,1,8,9,75.76,75.76,0,0,1,7.51,18.85q1.83,7,3.21,8.87a3.9,3.9,0,0,0,3.13,1.82q4.8,0,5.74-12.73h6.41q-.74,13.53-6,19.39t-15,5.86q-6.92,0-11.09-2.84a17.58,17.58,0,0,1-6.37-8.3q-1.31-3.12-3.64-14.69-2.69-13.53-4.84-18.19A16,16,0,0,0,291,1048a15,15,0,0,0-8.44-2.26h-7.93v39.65a5.14,5.14,0,0,0,1.53,4,7.7,7.7,0,0,0,5.09,1.81H291V1098H236.49v-6.77h8.44a6.6,6.6,0,0,0,4.94-1.71,6.49,6.49,0,0,0,1.68-4.76v-81.12q0-3.35-1.53-4.91a5.82,5.82,0,0,0-4.37-1.57h-9.16Zm38.12,48.81h9.09q12.07,0,19.06-6.18,5.25-4.72,5.24-15.93,0-10.33-5.16-15.1t-17.9-4.76c-4.56,0-7.42.49-8.58,1.49s-1.75,3.21-1.75,6.65Z"/><path class="9980b68b-a6f3-40ae-b570-f4168319ed89" d="M354.57,990.4h55.14v6.76h-10a7,7,0,0,0-4.66,1.28,4.71,4.71,0,0,0-1.46,3.74v83.31q0,2.91,1.53,4.14a8.78,8.78,0,0,0,5.68,1.6h8.87V1098H354.57v-6.77H363c2.91,0,4.95-.48,6.14-1.45a5.21,5.21,0,0,0,1.79-4.29v-82.36a5.73,5.73,0,0,0-1.64-4.51q-1.64-1.46-5.13-1.46h-9.6Z"/><path class="9980b68b-a6f3-40ae-b570-f4168319ed89" d="M509.17,1090.07q4.57,13.48,8.22,18.27,2.4,3,5.16,3.05a4.47,4.47,0,0,0,3.9-1.92c.89-1.27,1.46-4,1.71-8.2h6.54q-.06,11.94-6.29,18.85a20.14,20.14,0,0,1-15.6,6.91q-9.31,0-14.92-6.26t-7.06-22.12a65.91,65.91,0,0,1-6.84,1.13,62.29,62.29,0,0,1-7.2.4q-22.85,0-38.52-16t-15.68-40.31q0-24.44,15.57-40.32t38.7-15.88q23.29,0,39.15,15.95t15.86,39.52a59.24,59.24,0,0,1-5.39,25.77Q521.1,1080.26,509.17,1090.07Zm-6.91-17.53q3.63-13.15,3.63-30.53,0-17.6-3.71-27.62T491.92,999.6A24.66,24.66,0,0,0,477,994.83a24.37,24.37,0,0,0-15,5,27.52,27.52,0,0,0-9.53,13.85q-4,12.51-4,30.68,0,21.87,6,34.31.36-10.49,6.62-16.37t17-5.9a24.45,24.45,0,0,1,13.9,4Q498,1064.46,502.26,1072.54Zm-11.43,16.37.15-4q0-10.7-4.22-16.11a13.52,13.52,0,0,0-20.81-1,15.29,15.29,0,0,0-4.15,10.88,19.62,19.62,0,0,0,3.86,11.49A25.21,25.21,0,0,0,477,1093a27.14,27.14,0,0,0,7.68-1A19.1,19.1,0,0,0,490.83,1088.91Z"/><path class="9980b68b-a6f3-40ae-b570-f4168319ed89" d="M586.8,990.4h43.33l24.44,72.9,24.33-72.9h44.46v6.76h-9.65q-3.59,0-4.94,1.31c-.9.88-1.35,2.38-1.35,4.51v82.22c0,2.08.49,3.51,1.46,4.29a9.29,9.29,0,0,0,5.92,1.74h8.56V1098H668.57v-6.77H678.9a5.62,5.62,0,0,0,4.33-1.6,6.25,6.25,0,0,0,1.49-4.43v-88L650.53,1098H644.1L610,996.29v78.65a15,15,0,0,0,4.3,11.09q4.29,4.34,12.44,5.2V1098H586.8v-6.77q7.56-.64,11.75-5.31a17.09,17.09,0,0,0,4.18-11.86v-69.55q0-4.44-1.53-5.89t-5.89-1.46H586.8Z"/><path class="9980b68b-a6f3-40ae-b570-f4168319ed89" d="M788.93,987.71l40.35,96.54q1.74,4.08,3.78,5.53a9.1,9.1,0,0,0,5.39,1.45h3.93V1098H791.89v-6.77h4.73q5.6,0,7.71-1.23a3.71,3.71,0,0,0,2.11-3.28,10,10,0,0,0-.87-3.71l-8.3-19.93H757l-3.82,9.09q-2.42,5.68-2.41,8.44a9.57,9.57,0,0,0,3.5,7.68q3.5,2.94,9.55,2.94h3.43V1098H726.34v-6.77h2.33a10.57,10.57,0,0,0,6.94-2.47,23.27,23.27,0,0,0,6.57-9l38.58-92.1Zm-11.7,27.23L760,1056H794.3Z"/><path class="9980b68b-a6f3-40ae-b570-f4168319ed89" d="M846.82,990.4h33.39l58.28,73.77V1014q0-7.42-4.22-11.89t-12-5V990.4h39.29v6.76q-8.22.89-11.79,4.91t-3.56,12v84h-8.41l-66.31-84.89v58.79q0,10.11,4.62,14.72a15.55,15.55,0,0,0,11.46,4.61h1.82V1098H846v-6.77h3a13.64,13.64,0,0,0,10.77-5.08q4.37-5.09,4.36-13.08v-69.46a15,15,0,0,0-12.44-6.45h-4.8Z"/><path class="9980b68b-a6f3-40ae-b570-f4168319ed89" d="M978.14,990.4h79.16v6.76L997,1091.23h27.47a23.34,23.34,0,0,0,12.35-3.16q5.21-3.16,9.14-10.22t6.34-20.3h6.62l-2,40.45H971.59v-6.77l60.05-94.07h-20.57q-12.44,0-19.52,7t-9.48,23.68h-6.4Z"/><path class="9980b68b-a6f3-40ae-b570-f4168319ed89" d="M1070.32,990.4h55.15v6.76h-10a7,7,0,0,0-4.66,1.28,4.71,4.71,0,0,0-1.45,3.74v83.31q0,2.91,1.53,4.14a8.75,8.75,0,0,0,5.67,1.6h8.88V1098h-55.15v-6.77h8.44q4.37,0,6.15-1.45a5.24,5.24,0,0,0,1.78-4.29v-82.36a5.73,5.73,0,0,0-1.64-4.51q-1.63-1.46-5.13-1.46h-9.6Z"/><path class="9980b68b-a6f3-40ae-b570-f4168319ed89" d="M1137.18,997.16V990.4h55.22v6.76h-9.31q-4,0-5.61,1.53c-1.06,1-1.6,2.67-1.6,4.95v80q0,4.88,1.53,6.22c1,.9,3.42,1.34,7.2,1.34h15.5q8.66,0,16.15-8.22t11.5-26.26h6.55l-2.48,41.25h-94.65v-6.77h9.46a6.42,6.42,0,0,0,4.73-1.6,6.11,6.11,0,0,0,1.6-4.51v-82.28a5.3,5.3,0,0,0-1.64-4.33q-1.63-1.35-5.64-1.35Z"/><path class="9980b68b-a6f3-40ae-b570-f4168319ed89" d="M1312.3,998.69l6.76-9.6h5.17l.65,37.17h-6.54q-5.1-16-14.48-24t-20.74-8q-9.67,0-15.75,5.26t-6.07,12.61a14.25,14.25,0,0,0,2.39,8,18.67,18.67,0,0,0,7.74,6.22q5.35,2.58,18.72,5.33,15.61,3.27,21.6,5.89,9.48,4.21,14.21,11.16t4.74,16.91q0,14.92-10.25,23.79-12.37,10.69-30.63,10.69-16.82,0-30.71-11.71l-8.51,10.62h-5.38v-39.87h6.4q9.53,34.13,38.66,34.12,11.92,0,18.53-5.48a17.11,17.11,0,0,0,6.62-13.71,15.61,15.61,0,0,0-2.91-9.63q-2.91-3.88-9-6.29-3.35-1.31-16.56-4.14-17.81-3.93-25.4-8.11a28.32,28.32,0,0,1-11.17-10.25,28.83,28.83,0,0,1-3.56-14.8q0-14.68,9.86-23.95t26.44-9.27Q1299.07,987.71,1312.3,998.69Z"/></g></g><g id="d967652b-4863-41a1-b031-cf6bc36a38f8" data-name="Layer 7"><path class="9980b68b-a6f3-40ae-b570-f4168319ed89" d="M891.41,441.3c-39.38,13.66-41.1,26.78-41.1,42.56v80H932.5v-80C932.5,468.08,930.78,455,891.41,441.3Z"/><path class="9980b68b-a6f3-40ae-b570-f4168319ed89" d="M901.12,353.37c0-5.58-.56-10.22-13.45-15.05-12.89,4.83-13.45,9.47-13.45,15.05v28.29h26.9Z"/><path class="9980b68b-a6f3-40ae-b570-f4168319ed89" d="M931,353.37c0-5.58-.56-10.22-13.45-15.05-12.88,4.83-13.44,9.47-13.44,15.05v28.29H931Z"/><path class="9980b68b-a6f3-40ae-b570-f4168319ed89" d="M871.23,353.37c0-5.58-.56-10.22-13.45-15.05-12.88,4.83-13.44,9.47-13.44,15.05v28.29h26.89Z"/><path class="9980b68b-a6f3-40ae-b570-f4168319ed89" d="M457.33,441.3C418,455,416.24,468.08,416.24,483.86v80h82.18v-80C498.42,468.08,496.71,455,457.33,441.3Z"/><path class="9980b68b-a6f3-40ae-b570-f4168319ed89" d="M1024,639.33c0-11.84-1.29-21.68-30.82-31.92-29.53,10.24-30.82,20.08-30.82,31.92v60H1024Z"/><path class="9980b68b-a6f3-40ae-b570-f4168319ed89" d="M891.41,585.74c-39.38,13.66-41.1,26.78-41.1,42.56v79H932.5v-79C932.5,612.52,930.78,599.4,891.41,585.74Z"/><path class="9980b68b-a6f3-40ae-b570-f4168319ed89" d="M1024,494.89c0-11.84-1.29-21.68-30.82-31.92-29.53,10.24-30.82,20.08-30.82,31.92v60H1024Z"/><path class="9980b68b-a6f3-40ae-b570-f4168319ed89" d="M498.42,628.3c0-15.78-1.71-28.9-41.09-42.56C418,599.4,416.24,612.52,416.24,628.3v79h82.18Z"/><path class="9980b68b-a6f3-40ae-b570-f4168319ed89" d="M500.66,353.37c0-5.58-.56-10.22-13.44-15.05-12.89,4.83-13.45,9.47-13.45,15.05v28.29h26.89Z"/><path class="9980b68b-a6f3-40ae-b570-f4168319ed89" d="M386.35,639.33c0-11.84-1.28-21.68-30.81-31.92-29.54,10.24-30.82,20.08-30.82,31.92v60h61.63Z"/><path class="9980b68b-a6f3-40ae-b570-f4168319ed89" d="M767.38,534c0-34.38-4-63-94.88-92.73-90.93,29.76-94.88,58.35-94.88,92.73V707.27H767.38Z"/><path class="9980b68b-a6f3-40ae-b570-f4168319ed89" d="M386.35,494.89c0-11.84-1.28-21.68-30.81-31.92-29.54,10.24-30.82,20.08-30.82,31.92v60h61.63Z"/><path class="9980b68b-a6f3-40ae-b570-f4168319ed89" d="M470.78,353.37c0-5.58-.56-10.22-13.45-15.05-12.89,4.83-13.45,9.47-13.45,15.05v28.29h26.9Z"/><path class="9980b68b-a6f3-40ae-b570-f4168319ed89" d="M440.89,353.37c0-5.58-.56-10.22-13.44-15.05-12.89,4.83-13.45,9.47-13.45,15.05v28.29h26.89Z"/><path class="9980b68b-a6f3-40ae-b570-f4168319ed89" d="M1338.06,563l-10.9-.17L1323,407.87c11.88,0,12.18-17.8,12.18-31.2l-13-.82-4.75-178.47c5.37,0,10.6-4.74,10.6-13.4,0-7.68-4.15-12.42-10.86-12.42l-.49-49L1331,123c2.39-7.84-15.39-15.69-16.28-19.77,4.18-10.3-3.44-26-27.55-44.35h-4.13C1259,77.26,1251.34,93,1255.52,103.25c-.89,4.08-18.67,11.93-16.28,19.77l14.34-.49-.49,49c-6.71,0-10.86,4.74-10.86,12.42,0,8.66,5.23,13.4,10.61,13.4l-4.76,178.47-13,.82c0,13.4.3,31.2,12.18,31.2l-4.12,154.94-10.9.17c0,13.44,0,26,10.2,26l-3.15,118.31H1127l-2-67.18c6.37,0,6.37-7.16,6.37-14.84l-6.81-.1-2.57-88.54c7.42,0,7.61-10.17,7.61-17.83l-8.15-.46-3-102c3.37,0,6.63-2.7,6.63-7.65,0-4.39-2.59-7.1-6.79-7.1l-.3-28,9,.28c1.5-4.48-9.62-9-10.18-11.3,2.62-5.88-2.14-14.85-17.21-25.34h-2.59c-15.06,10.49-19.83,19.46-17.21,25.34-.56,2.34-11.67,6.82-10.18,11.3l9-.28-.31,28c-4.19,0-6.79,2.71-6.79,7.1,0,4.95,3.27,7.65,6.63,7.65l-3,102-8.14.46c0,7.66.18,17.83,7.61,17.83l-2.58,88.54-6.81.1c0,7.68,0,14.84,6.37,14.84l-2,67.18h-25.14V410.42L958.65,388.5H942V327.24c5.11-16.24,5.31-43.33-8.14-57.44-12.28-13.12-30.05-20.42-43.49-38.85H885c-13.44,18.43-31.21,25.73-43.5,38.85-.47.49-.92,1-1.36,1.53,10.13-48.86,6.38-116.45-29.18-153.78C774.11,78.2,720.81,56.29,680.47,1H664.53C624.19,56.29,570.89,78.2,534,117.55c-35.56,37.33-39.31,104.92-29.18,153.78-.44-.52-.89-1-1.36-1.53C491.2,256.68,473.43,249.38,460,231h-5.32c-13.44,18.43-31.21,25.73-43.49,38.85-13.45,14.11-13.25,41.2-8.14,57.44V388.5H386.35l-85.91,21.92V707.27H275.3l-1.95-67.18c6.37,0,6.37-7.16,6.37-14.84l-6.81-.1-2.58-88.54c7.43,0,7.61-10.17,7.61-17.83l-8.14-.46-3-102c3.36,0,6.63-2.7,6.63-7.65,0-4.39-2.6-7.1-6.79-7.1l-.31-28,9,.28c1.49-4.48-9.62-9-10.18-11.3,2.62-5.88-2.15-14.85-17.21-25.34h-2.59c-15.06,10.49-19.83,19.46-17.21,25.34-.56,2.34-11.68,6.82-10.18,11.3l9-.28-.3,28c-4.2,0-6.79,2.71-6.79,7.1,0,4.95,3.26,7.65,6.63,7.65l-3,102-8.15.46c0,7.66.19,17.83,7.61,17.83l-2.57,88.54-6.81.1c0,7.68,0,14.84,6.37,14.84L218,707.27H106.74L103.59,589c10.2,0,10.2-12.54,10.2-26l-10.9-.17L98.77,407.87c11.88,0,12.18-17.8,12.18-31.2l-13-.82L93.17,197.38c5.37,0,10.6-4.74,10.6-13.4,0-7.68-4.15-12.42-10.86-12.42l-.49-49,14.34.49c2.39-7.84-15.39-15.69-16.28-19.77C94.66,93,87,77.26,62.93,58.9H58.8C34.69,77.26,27.07,93,31.25,103.25,30.36,107.33,12.58,115.18,15,123l14.34-.49-.49,49C22.11,171.56,18,176.3,18,184c0,8.66,5.23,13.4,10.6,13.4L23.81,375.85l-13,.82c0,13.4.3,31.2,12.18,31.2L18.84,562.81,7.94,563c0,13.44,0,26,10.2,26L15,708.27h.25v88.78H524.15L14,960.92H505.62L649.2,797.05h47.85L840.63,960.92h491.65L822.1,797.05h510.18V707.27H1332L1328.86,589C1338.06,589,1338.06,576.42,1338.06,563ZM932.5,707.27H850.31v-79c0-15.78,1.72-28.9,41.1-42.56,39.37,13.66,41.09,26.78,41.09,42.56Zm29.88-212.38c0-11.84,1.29-21.68,30.82-31.92,29.53,10.24,30.82,20.08,30.82,31.92v60H962.38Zm0,144.44c0-11.84,1.29-21.68,30.82-31.92,29.53,10.24,30.82,20.08,30.82,31.92v60H962.38Zm-29.88-75.5H850.31v-80c0-15.78,1.72-28.9,41.1-42.56,39.37,13.66,41.09,26.78,41.09,42.56ZM904.11,353.37c0-5.58.56-10.22,13.44-15.05,12.89,4.83,13.45,9.47,13.45,15.05v28.29H904.11Zm-29.89,0c0-5.58.56-10.22,13.45-15.05,12.89,4.83,13.45,9.47,13.45,15.05v28.29h-26.9Zm-29.88,0c0-5.58.56-10.22,13.44-15.05,12.89,4.83,13.45,9.47,13.45,15.05v28.29H844.34ZM498.42,563.83H416.24v-80c0-15.78,1.71-28.9,41.09-42.56,39.38,13.66,41.09,26.78,41.09,42.56ZM473.77,353.37c0-5.58.56-10.22,13.45-15.05,12.88,4.83,13.44,9.47,13.44,15.05v28.29H473.77Zm-29.89,0c0-5.58.56-10.22,13.45-15.05,12.89,4.83,13.45,9.47,13.45,15.05v28.29h-26.9Zm-29.88,0c0-5.58.56-10.22,13.45-15.05,12.88,4.83,13.44,9.47,13.44,15.05v28.29H414ZM324.72,494.89c0-11.84,1.28-21.68,30.82-31.92,29.53,10.24,30.81,20.08,30.81,31.92v60H324.72Zm0,144.44c0-11.84,1.28-21.68,30.82-31.92,29.53,10.24,30.81,20.08,30.81,31.92v60H324.72Zm91.52-11c0-15.78,1.71-28.9,41.09-42.56,39.38,13.66,41.09,26.78,41.09,42.56v79H416.24Zm161.38,79V534c0-34.38,4-63,94.88-92.73,90.93,29.76,94.88,58.35,94.88,92.73V707.27Z"/></g></svg>